#!OML:ASF \\sashay\E\basketball\basketball\Project 1\Capture day 1\Session 1\Subject.ASF
:FULLY-SPECIFIED
:DEGREES
400
root -1.14191 15.0597 6.98601 198.464 40.786 -171.161
lowerback 31.8933 -4.90591 -3.13086
upperback 12.0711 -5.06434 -1.26771
thorax -3.46159 -1.67814 2.00791
lowerneck -11.7165 9.58123 -10.8997
upperneck -17.6647 15.901 3.16892
head -4.64417 9.13172 2.43398
rclavicle -7.15625e-014 -9.85972e-014
rhumerus -7.86258 7.84969 -95.8174
rradius 56.2288
rwrist -24.4219
rhand -14.0783 27.9412
rfingers 7.12502
rthumb 12.0536 -1.69165
lclavicle -7.15625e-014 -9.85972e-014
lhumerus 3.17543 -18.502 98.5027
lradius 44.419
lwrist 42.2099
lhand -13.4422 35.3022
lfingers 7.12502
lthumb 12.6669 64.8981
rfemur -23.9513 -6.74172 8.36185
rtibia 27.6675
rfoot -7.49014 -12.7001
rtoes -53.2515
lfemur -56.1451 33.3513 -22.4856
ltibia 61.0939
lfoot -12.2644 5.5952
ltoes 7.39282
401
root -1.13275 15.0498 6.96729 198.876 40.1345 -170.839
lowerback 31.313 -4.85662 -2.80765
upperback 11.8691 -4.9534 -1.00039
thorax -3.45 -1.64881 2.06193
lowerneck -11.6363 9.51732 -11.008
upperneck -17.7297 15.7823 2.93792
head -4.65972 9.08468 2.37747
rclavicle -4.13472e-014 1.31993e-013
rhumerus -8.50413 8.42947 -95.4688
rradius 56.969
rwrist -25.5449
rhand -13.0761 26.9387
rfingers 7.12502
rthumb 13.0199 -2.63497
lclavicle -4.13472e-014 1.31993e-013
lhumerus 2.44042 -18.6417 98.6138
lradius 45.3652
lwrist 42.4001
lhand -13.9611 36.1392
lfingers 7.12502
lthumb 12.1666 65.7654
rfemur -23.8216 -7.37143 8.76471
rtibia 27.4247
rfoot -7.69233 -12.5444
rtoes -53.0175
lfemur -57.2831 33.9141 -23.0807
ltibia 61.4547
lfoot -11.9309 5.63997
ltoes 6.82329
402
root -1.0602 15.0679 6.95434 197.877 38.8746 -170.881
lowerback 31.7699 -4.81274 -2.92961
upperback 11.8852 -4.87678 -0.843482
thorax -3.60818 -1.59139 2.30202
lowerneck -10.9248 9.51741 -10.4192
upperneck -18.0516 15.6171 2.59114
head -4.7824 8.97431 2.14347
rclavicle -1.90833e-014 1.11319e-014
rhumerus -9.4528 8.89162 -95.5931
rradius 57.3581
rwrist -25.4318
rhand -13.9011 28.0075
rfingers 7.12502
rthumb 12.2245 -1.6153
lclavicle -1.90833e-014 1.11319e-014
lhumerus 1.5383 -18.6402 98.4585
lradius 46.1077
lwrist 41.551
lhand -11.4052 35.9523
lfingers 7.12502
lthumb 14.6301 65.4162
rfemur -21.8973 -7.4668 9.0198
rtibia 27.2663
rfoot -8.07268 -13.4519
rtoes -52.7735
lfemur -56.6384 34.6463 -22.9398
ltibia 61.687
lfoot -11.7135 5.41022
ltoes 3.26567
403
root -1.04889 15.0526 6.92808 198.162 38.2455 -170.566
lowerback 31.2276 -4.75889 -2.20083
upperback 11.611 -4.68354 -0.983125
thorax -3.77769 -1.49651 1.65539
lowerneck -10.9597 9.41008 -10.1733
upperneck -17.7214 15.4462 2.70284
head -4.64811 8.85799 2.16457
rclavicle -4.92986e-014 -1.90833e-014
rhumerus -10.4467 8.96447 -95.9712
rradius 58.3324
rwrist -25.8263
rhand -13.8816 26.9922
rfingers 7.12502
rthumb 12.2433 -2.62944
lclavicle -4.92986e-014 -1.90833e-014
lhumerus 0.526051 -19.1709 98.0269
lradius 47.0389
lwrist 41.1854
lhand -9.31528 35.0107
lfingers 7.12502
lthumb 16.6429 64.3171
rfemur -21.6805 -8.3103 9.44207
rtibia 27.1265
rfoot -8.21125 -13.1745
rtoes -52.9548
lfemur -57.7204 35.2446 -23.6893
ltibia 62.0561
lfoot -11.8681 6.18422
ltoes 1.27627
404
root -1.03416 15.0347 6.89805 198.214 37.38 -170.421
lowerback 30.7279 -4.77029 -1.70559
upperback 11.4115 -4.61006 -0.962119
thorax -3.82966 -1.46752 1.3569
lowerneck -10.8814 9.26839 -10.2878
upperneck -17.8192 15.2937 2.82128
head -4.69657 8.79188 2.21424
rclavicle 6.20208e-014 -1.27222e-014
rhumerus -11.2804 9.58039 -96.1039
rradius 59.1148
rwrist -26.1491
rhand -14.6992 27.7037
rfingers 7.12502
rthumb 11.4548 -1.96335
lclavicle 6.20208e-014 -1.27222e-014
lhumerus -0.612192 -20.5842 97.663
lradius 48.7385
lwrist 44.1051
lhand -12.0167 32.542
lfingers 7.12502
lthumb 14.0409 62.0477
rfemur -21.1749 -9.29454 9.76134
rtibia 26.9749
rfoot -8.32664 -13.123
rtoes -53.2591
lfemur -58.7723 35.7989 -24.6188
ltibia 62.4886
lfoot -12.1212 6.88552
ltoes 0.565345
405
root -0.968217 15.04 6.87144 197.379 36.0432 -170.479
lowerback 30.7727 -4.71733 -1.88472
upperback 11.432 -4.54356 -0.722423
thorax -3.78967 -1.43202 1.7015
lowerneck -10.8086 9.14837 -10.3778
upperneck -17.7484 15.1352 2.88639
head -4.68492 8.71114 2.25122
rclavicle 1.59028e-015 -6.67916e-014
rhumerus -12.0458 10.4839 -96.0516
rradius 59.9635
rwrist -26.7381
rhand -15.6845 28.4649
rfingers 7.12502
rthumb 10.5045 -1.2526
lclavicle 1.59028e-015 -6.67916e-014
lhumerus -1.53263 -21.1092 97.4564
lradius 50.4328
lwrist 44.6849
lhand -11.6952 32.9989
lfingers 7.12502
lthumb 14.3507 62.4829
rfemur -19.3763 -9.67892 9.9645
rtibia 26.7755
rfoot -8.55655 -14.0126
rtoes -53.3019
lfemur -58.6533 36.5355 -24.9628
ltibia 62.9217
lfoot -12.4359 7.19541
ltoes -0.32336
406
root -0.978218 15.0196 6.83179 198.041 35.2633 -170.085
lowerback 29.6702 -4.64007 -1.06806
upperback 11.1369 -4.32247 -0.639528
thorax -3.70027 -1.35025 1.21742
lowerneck -11.5375 8.85301 -10.8823
upperneck -17.1529 14.8636 3.1492
head -4.42409 8.59185 2.47673
rclavicle -8.26944e-014 -2.06736e-014
rhumerus -12.8635 11.0993 -96.0364
rradius 61.129
rwrist -27.2361
rhand -16.7972 28.4404
rfingers 7.12502
rthumb 9.43107 -1.32862
lclavicle -8.26944e-014 -2.06736e-014
lhumerus -2.36582 -21.759 97.2985
lradius 52.1279
lwrist 45.1082
lhand -11.7541 33.6616
lfingers 7.12502
lthumb 14.2939 63.1496
rfemur -19.3863 -10.6765 10.4369
rtibia 26.4237
rfoot -8.3486 -13.8267
rtoes -53.6237
lfemur -60.585 36.8448 -26.3361
ltibia 63.4575
lfoot -12.9015 8.70475
ltoes 0.788387
407
root -0.97077 15.0069 6.78762 198.019 34.156 -169.963
lowerback 29.0541 -4.60393 -0.43571
upperback 10.9427 -4.15967 -0.608861
thorax -3.69173 -1.27577 0.819863
lowerneck -10.8359 8.77867 -9.75295
upperneck -17.317 14.5091 2.55431
head -4.42863 8.35965 2.1061
rclavicle 2.38542e-014 2.8625e-014
rhumerus -13.7937 11.3872 -96.2124
rradius 62.5029
rwrist -27.3575
rhand -16.4893 28.4792
rfingers 7.12502
rthumb 9.72814 -1.27614
lclavicle 2.38542e-014 2.8625e-014
lhumerus -3.26791 -22.5385 97.0044
lradius 54.0705
lwrist 45.7013
lhand -12.5162 34.8448
lfingers 7.12502
lthumb 13.5595 64.3833
rfemur -18.5367 -11.4463 10.6671
rtibia 25.9758
rfoot -7.91498 -14.2271
rtoes -54.0941
lfemur -61.8012 37.1602 -27.6535
ltibia 63.8908
lfoot -13.579 9.99711
ltoes 4.75096
408
root -0.868833 15.0218 6.74682 196.611 32.2672 -170.113
lowerback 29.3428 -4.5513 -0.835017
upperback 11.0515 -4.1032 -0.346672
thorax -3.64803 -1.23194 1.32416
lowerneck -12.2187 8.53662 -10.6151
upperneck -16.0493 14.4144 3.19821
head -3.92549 8.3193 2.54665
rclavicle -3.81667e-014 2.22639e-014
rhumerus -14.8807 11.7403 -96.5123
rradius 64.0652
rwrist -27.7149
rhand -17.3204 28.8457
rfingers 7.12502
rthumb 8.92616 -0.945441
lclavicle -3.81667e-014 2.22639e-014
lhumerus -4.25885 -23.1631 96.6658
lradius 56.1714
lwrist 46.4802
lhand -13.8469 36.4207
lfingers 7.12502
lthumb 12.2767 66.0404
rfemur -15.7804 -11.33 10.7626
rtibia 25.5611
rfoot -7.7793 -15.9288
rtoes -54.1404
lfemur -60.9742 38.0355 -27.9069
ltibia 64.115
lfoot -14.1546 10.0833
ltoes 7.57323
